<svg width="60" height="61" viewBox="0 0 60 61" fill="none" xmlns="http://www.w3.org/2000/svg">
<g id="image 2 (traced)">
<g id="Black">
<path id="Vector" d="M12.5196 5.59705C11.5723 5.94395 10.8985 6.62691 10.2442 7.9278C9.72668 8.93599 9.69739 9.14196 9.99035 9.55391C10.1466 9.77072 10.2735 9.83576 10.5567 9.83576C11.0255 9.83576 11.1427 9.71651 11.6212 8.8059C12.2364 7.61342 12.6954 7.23399 13.5059 7.23399C14.2187 7.23399 14.9121 7.75435 15.1465 8.45899C15.3027 8.9143 15.2734 9.69483 15.0879 10.0851C14.4238 11.5269 9.8048 20.2645 9.56067 20.5355C8.49625 21.7822 6.56271 20.8716 6.56271 19.1262C6.56271 18.5083 6.49435 18.6492 8.37906 15.0285C9.96105 12.0039 10.0587 11.722 9.69739 11.2342C9.46302 10.909 8.88686 10.8873 8.61343 11.1908C8.35953 11.4835 5.30297 17.3592 5.13696 17.9012C4.93189 18.53 4.96119 19.7984 5.20532 20.503C5.45922 21.2835 6.14279 22.1074 6.82637 22.476C7.48065 22.8338 8.60367 22.9422 9.29701 22.7145C9.72668 22.5627 9.74621 22.5736 10.2833 22.9205L10.8302 23.2891L10.8888 24.178C10.9474 25.2946 12.9883 33.8154 13.3496 34.52C14.1992 36.1245 16.0839 36.7098 17.6464 35.8643C19.121 35.0621 19.7264 33.3818 19.2674 31.4196C19.1503 30.9209 19.0721 30.4873 19.1014 30.4656C19.1307 30.4331 19.5213 30.6499 19.9803 30.9318L20.8104 31.463L20.8397 36.8291C20.8787 42.1194 20.8787 42.2061 21.1033 42.8999C21.5721 44.3525 22.2752 45.545 23.2029 46.4231L23.7497 46.9543V47.8541V48.7539L23.3591 49.1441C22.8709 49.632 22.4021 50.6835 22.324 51.464C22.2459 52.2662 22.49 53.3178 22.9197 54.0224C23.281 54.6078 23.5544 54.868 24.238 55.2691L24.6774 55.5293H30.8296H36.9818L37.431 55.28C38.1536 54.8897 38.6517 54.3368 39.0032 53.5454C39.2962 52.8842 39.3255 52.7324 39.3255 51.8435C39.3157 50.9979 39.2864 50.7919 39.0521 50.2716C38.8958 49.9463 38.6028 49.4802 38.388 49.2417C38.0267 48.8189 38.0072 48.7647 38.0072 48.1034V47.3988L38.4173 47.1386C38.9153 46.8242 40.5364 45.1005 40.6536 44.7753C40.7512 44.4718 40.5852 43.9081 40.3508 43.7671C40.2532 43.7021 40.0286 43.6587 39.8626 43.6587C39.6184 43.6587 39.3938 43.8322 38.6614 44.6019C38.1536 45.1439 37.4994 45.7076 37.1673 45.9136C36.8353 46.0979 36.5326 46.3364 36.5033 46.434C36.474 46.5315 36.4447 46.9543 36.4447 47.3771V48.1576L30.8784 48.1251L25.3122 48.1034V47.1061V46.1087L24.8532 45.6751C23.8962 44.7536 23.3005 44.0056 22.9978 43.3227C22.3728 41.9459 22.3826 42.1519 22.3826 33.2733C22.3826 24.449 22.3533 24.9152 22.949 24.4165C23.1345 24.2647 23.3689 24.1997 23.7204 24.1997C24.1892 24.1997 24.2673 24.243 24.5993 24.6116L24.9704 25.0127L25.0192 29.3599L25.0681 33.707L25.3024 33.9129C25.5954 34.184 26.0055 34.1731 26.3278 33.8913L26.5817 33.6745V28.5576C26.5817 23.7661 26.6012 23.4083 26.7672 22.9855C27.2457 21.8364 28.6617 21.8473 29.1597 22.9964C29.2965 23.3216 29.316 23.9937 29.316 28.5143V33.6745L29.5699 33.8913C29.9214 34.1948 30.3414 34.184 30.6343 33.8479L30.8784 33.5877V27.8855C30.8784 21.7388 30.8687 21.8906 31.396 21.3486C31.9233 20.8065 32.9389 20.9908 33.3296 21.6955C33.5053 22.0099 33.5151 22.3459 33.5151 27.6253C33.5151 33.3926 33.5444 33.7937 33.9057 34.0105C34.2182 34.1948 34.6381 34.1298 34.8627 33.8696C35.0678 33.6311 35.0678 33.566 35.0971 28.4276C35.1264 22.5302 35.0971 22.7362 35.9369 22.2917C36.4252 22.0207 36.8646 22.0749 37.2748 22.4327C37.8216 22.9096 37.8119 22.747 37.8119 30.9209V38.466L38.056 38.7262C38.2025 38.8997 38.3978 38.9972 38.6028 38.9972C38.8665 38.9972 39.1106 38.7804 40.3411 37.447C41.5617 36.1136 41.8254 35.8751 42.216 35.7667C42.8312 35.5933 43.3195 35.7667 43.8273 36.3304C44.1203 36.6556 44.2472 36.905 44.3058 37.2302C44.423 38.0649 44.257 38.3685 42.6848 40.1463C41.3664 41.6315 41.2297 41.8158 41.2297 42.1627C41.2297 42.6505 41.4739 42.9866 41.8938 43.0733C42.2063 43.1384 42.2649 43.0842 43.7785 41.4256C45.6827 39.3225 45.8683 38.9756 45.8683 37.5879C45.8585 36.4714 45.6534 35.8968 44.9894 35.1054C44.2179 34.184 43.1437 33.7937 42.0305 34.0214C41.259 34.184 40.7903 34.4767 40.0384 35.2897L39.3743 35.9944V34.6501V33.3059L42.509 31.3003C44.2375 30.1946 45.8878 29.078 46.1905 28.807C47.3721 27.7554 48.1924 26.2703 48.583 24.4924L48.8076 23.4842L49.5205 23.018L50.2334 22.5411L50.6826 22.7037C51.3857 22.9422 52.499 22.8446 53.1728 22.476C53.8563 22.1074 54.5399 21.2835 54.7938 20.503C55.0282 19.8309 55.0672 18.5625 54.8915 17.9554C54.6864 17.2833 49.2959 7.01718 48.9151 6.57271C48.71 6.34506 48.3194 6.01984 48.0362 5.84639C47.5772 5.58621 47.4307 5.55369 46.503 5.55369C45.6144 5.55369 45.4191 5.58621 45.0578 5.80302C44.1105 6.36674 43.3683 7.41829 43.2219 8.39395C43.173 8.77337 43.1047 8.8601 42.5969 9.16364L42.0305 9.51054L41.6106 9.25037C41.0149 8.89262 40.4387 8.69749 36.2396 7.45081C33.6909 6.7028 32.3921 6.36674 32.021 6.36674C29.1597 6.36674 27.7047 10.2369 29.7066 12.5351C30.1851 13.0771 30.6148 13.3265 31.6401 13.6408L32.4409 13.8793L31.9819 14.172L31.523 14.4647L30.3902 13.7384C25.9372 10.8548 24.1111 9.7382 23.4861 9.52138C22.1385 9.04439 20.4002 9.04439 19.0721 9.54306L18.3593 9.80324L17.5976 9.32625C16.8847 8.88178 16.8359 8.82758 16.7773 8.41563C16.6406 7.45081 15.9277 6.4101 15.039 5.87891C14.5898 5.60789 14.3945 5.55369 13.6426 5.53201C13.1641 5.52116 12.6563 5.54285 12.5196 5.59705ZM47.2159 7.38577C47.3917 7.46165 47.6456 7.66762 47.792 7.84107C48.0069 8.10125 52.6845 16.9689 53.2509 18.2048C53.4853 18.7143 53.495 19.5273 53.2607 20.0152C52.7236 21.2077 51.2392 21.4787 50.4385 20.5355C50.1943 20.2537 45.5558 11.4944 44.9015 10.0634C44.6867 9.61895 44.6769 8.77337 44.882 8.35059C45.0577 7.96032 45.507 7.49417 45.8194 7.35324C46.171 7.20147 46.8546 7.21231 47.2159 7.38577ZM36.1517 9.23952C39.5599 10.2477 40.1262 10.4428 41.0247 10.9415L42.0403 11.5161L42.7043 11.115L43.3683 10.7139L43.5539 11.0608C44.2863 12.405 48.8467 21.2402 48.8467 21.3161C48.8467 21.3703 48.5245 21.6196 48.1241 21.8689C47.3233 22.3784 47.2354 22.5194 47.1475 23.495C47.0206 24.8826 46.2101 26.5088 45.214 27.3977C44.7453 27.8205 39.5989 31.1919 39.4329 31.1919C39.4036 31.1919 39.3743 29.3707 39.3743 27.1484C39.3743 24.8501 39.3352 22.953 39.2767 22.7362C39.1302 22.1616 38.6517 21.3703 38.2318 21.0342C37.9095 20.774 37.8607 20.6656 37.8314 20.2428C37.7533 18.7143 37.2455 18.0964 34.9115 16.622C33.9838 16.0366 33.2221 15.5271 33.2221 15.4838C33.2221 15.4404 33.603 15.1694 34.0717 14.8767C35.058 14.2371 35.2729 14.0203 35.2729 13.6192C35.2729 13.0012 34.9701 12.8061 33.1245 12.2641C32.187 11.9931 31.2788 11.6678 31.1031 11.5378C30.0582 10.7572 30.1363 8.97935 31.2495 8.31807C31.4448 8.20966 31.7671 8.11209 31.9526 8.10125C32.1479 8.10125 34.0327 8.61076 36.1517 9.23952ZM17.8417 11.5378C18.1249 11.7437 18.3788 11.7112 19.1893 11.3535C20.4881 10.7789 21.826 10.7355 23.0857 11.2234C23.7693 11.4944 35.6439 19.0829 35.9271 19.4406C36.3666 19.9827 36.3178 20.4488 35.8197 20.4596C35.7123 20.4596 35.4291 20.5681 35.1947 20.6981C34.8041 20.9041 34.7553 20.9041 34.6772 20.7523C34.4623 20.3296 34.0815 19.9393 33.603 19.6466C32.978 19.278 31.9331 19.1588 31.3277 19.3973L30.9468 19.549L29.5308 18.6492C28.7496 18.1506 28.0465 17.7495 27.9781 17.7495C27.7535 17.7495 27.2946 18.053 27.2262 18.2373C27.0016 18.8986 27.2262 19.2021 28.5836 20.0802C29.7554 20.8282 29.9996 21.0776 29.1597 20.6548C28.5055 20.3296 27.402 20.3187 26.7672 20.6439C26.1325 20.9583 25.654 21.4678 25.3513 22.1508C25.1657 22.5736 25.0485 22.7253 24.9411 22.682C23.7302 22.1725 22.4802 22.4218 21.6502 23.3324C20.9178 24.1563 20.869 24.3515 20.8397 27.0291L20.8104 29.4357L19.3846 28.5251C18.5936 28.0265 17.8612 27.6145 17.744 27.6145C17.6269 27.6145 17.412 27.7121 17.2655 27.8422C16.914 28.1565 16.9335 28.4926 17.4511 30.6391C17.6952 31.6364 17.8905 32.5687 17.8905 32.7205C17.8808 33.1216 17.5585 33.8371 17.2558 34.0972C16.4355 34.8127 15.2539 34.5851 14.7363 33.6094C14.6387 33.4143 14.0723 31.2678 13.4863 28.8395C12.5391 24.9152 12.4219 24.3189 12.4219 23.5276C12.4219 23.0397 12.3731 22.5194 12.3145 22.3784C12.2559 22.2267 11.9532 21.9557 11.6309 21.7605C11.3184 21.5654 11.0743 21.3703 11.0938 21.3377C12.2168 19.2238 16.5234 10.8656 16.5234 10.7897C16.5234 10.703 17.3241 11.1475 17.8417 11.5378ZM36.474 49.9572C37.2845 50.2065 37.89 51.2147 37.7826 52.1253C37.7142 52.7216 37.3041 53.3612 36.8353 53.6322C36.4642 53.8381 36.2787 53.849 30.8101 53.849H25.1657L24.8044 53.5997C24.072 53.101 23.7302 52.2229 23.9353 51.3773C24.072 50.8136 24.6774 50.1089 25.1364 49.9572C25.5954 49.8162 35.9955 49.8054 36.474 49.9572Z" fill="#6B7385"/>
</g>
</g>
</svg>
