<svg xmlns="http://www.w3.org/2000/svg" width="50" height="51" viewBox="0 0 50 51" fill="none">
<g id="image 3 (traced)" clip-path="url(#clip0_101_745)">
<g id="Black">
<path id="Vector" d="M23.2624 -1.36328C21.9538 -1.13867 20.1667 -0.337891 19.0632 0.511719C17.4714 1.74219 16.2409 3.57812 15.6159 5.6582C15.4011 6.35156 15.3913 6.58594 15.3523 10.1992C15.3132 14.252 15.3523 14.6914 15.782 16.0586C16.2995 17.6699 17.4812 19.4375 18.7116 20.4336L19.3366 20.9316V23.3926V25.8535L18.8288 25.9707C18.5456 26.0293 16.4167 26.4688 14.112 26.9473C11.7976 27.4258 9.60031 27.9141 9.22922 28.0312C7.51047 28.5586 5.97726 29.5449 4.63937 30.9707C3.54562 32.1426 2.77414 33.5098 2.33469 35.0332C2.10031 35.873 0.000701904 47.2109 0.000701904 47.6699C0.000701904 47.875 0.0885925 48.1191 0.20578 48.2754L0.401093 48.5293H25.0105C49.4831 48.5293 49.6101 48.5293 49.8054 48.334C49.9421 48.1973 50.0007 48.0117 50.0007 47.6992C50.0007 47.2305 48.0769 36.7129 47.7644 35.4336C46.9343 32.0938 44.3073 29.2812 40.9968 28.1777C40.6062 28.0508 38.2234 27.4941 35.6941 26.9473C33.1745 26.4004 31.0066 25.9316 30.8894 25.9023L30.6648 25.8535V23.3926V20.9414L31.3679 20.3555C33.1843 18.8418 34.4148 16.4297 34.6687 13.8613C34.7956 12.6113 34.7859 8.55859 34.6687 7.30859C34.2585 3.28516 31.5534 0.0234375 27.6667 -1.13867C26.9343 -1.35352 26.5827 -1.40234 25.2937 -1.43164C24.4636 -1.44141 23.5456 -1.42188 23.2624 -1.36328ZM26.9538 0.443359C29.3952 1.06836 31.4558 2.88477 32.4226 5.23828C32.5691 5.60938 32.7253 6.04883 32.7644 6.22461L32.8327 6.53711H25.0105H17.1882L17.2468 6.26367C17.8425 3.76367 19.8737 1.53711 22.364 0.658203C23.7214 0.169922 25.5671 0.0917969 26.9538 0.443359ZM31.446 9.41797L30.323 10.541H25.0007H19.6784L18.5554 9.41797L17.4323 8.29492H25.0007H32.5691L31.446 9.41797ZM19.1413 12.25C19.278 12.2793 22.0124 12.2891 25.2155 12.2793L31.0554 12.25L32.0417 11.2734L33.028 10.2969L32.9792 12.3965C32.9402 14.4375 32.9304 14.5254 32.6374 15.4238C31.9148 17.6113 30.5085 19.2227 28.4675 20.209C27.1784 20.8242 26.3093 21.0293 24.9519 21.0195C21.3777 20.9902 18.3112 18.627 17.2761 15.1113C17.1003 14.5156 17.0612 14.0664 17.0222 12.3477L16.9734 10.2969L17.9402 11.2441C18.4675 11.7617 19.0144 12.2109 19.1413 12.25ZM21.8562 22.2207C23.8972 22.9238 26.0652 22.9238 28.1648 22.2207C28.5749 22.084 28.9362 21.9668 28.9558 21.9668C28.9851 21.9668 29.0046 23.1484 29.0046 24.5938V27.2207L28.3991 27.7773C26.28 29.6816 23.4968 29.6523 21.5144 27.6992L20.9968 27.2012V24.584C20.9968 23.1484 21.0261 21.9668 21.0652 21.9668C21.0945 21.9668 21.4558 22.084 21.8562 22.2207ZM20.0007 28.6367C21.0163 29.6621 21.7683 30.1602 22.9011 30.5312C23.5945 30.7656 23.8288 30.7949 25.0007 30.7852C26.153 30.7852 26.4167 30.7559 27.1003 30.5312C28.2038 30.1699 28.9753 29.6816 30.0886 28.627C31.1433 27.6309 30.9968 27.6797 31.9636 27.9336L32.3249 28.0312V29.252V30.4629L30.2155 33.2461C29.0632 34.7793 28.0866 36.0293 28.0671 36.0293C28.0378 36.0293 27.8327 35.8828 27.6179 35.6973C26.6609 34.877 25.2937 34.5645 24.0632 34.8965C23.4284 35.0625 22.657 35.4824 22.3054 35.8438L22.0417 36.1172L19.9128 33.2949L17.7741 30.4727V29.252V28.0312L18.1941 27.9238C18.4187 27.8652 18.653 27.7969 18.7019 27.7773C18.9851 27.6797 19.1706 27.8066 20.0007 28.6367ZM16.114 29.7109V31.1172L18.5945 34.4277L21.0749 37.7383L20.987 38.2656C20.6745 40.2188 21.905 42.1133 23.9558 42.7969C24.0925 42.8457 24.1218 42.9824 24.1218 43.6758C24.1218 44.584 24.2487 45.0625 24.5124 45.209C24.6198 45.2676 25.5573 45.3066 26.6413 45.3066C28.4187 45.3066 28.614 45.2871 28.8191 45.1211L29.0534 44.9355L29.0827 41.8496C29.1023 40.1504 29.073 38.5293 29.0241 38.2559L28.9265 37.7578L31.407 34.457L33.8777 31.1465L33.907 29.75L33.9362 28.3535L37.0124 29.0273C38.7019 29.3984 40.4304 29.8281 40.8503 29.9941C43.3112 30.9414 45.3913 33.2461 46.1335 35.834C46.28 36.3418 47.5593 43.334 47.5593 43.6074C47.5593 43.7246 46.739 43.7441 42.7741 43.7441H37.989V40.082V36.4199H37.1101H36.2312V41.6934V46.9668H25.0007H13.7702V41.6934V36.4199H12.8913H12.0124V40.0332V43.6465H7.22726C4.01437 43.6465 2.44211 43.6172 2.44211 43.5488C2.44211 43.1191 3.84836 35.8242 4.04367 35.2676C4.45383 34.0469 5.12766 32.9727 6.10422 31.9863C7.1882 30.8828 8.26242 30.1992 9.56125 29.7793C10.4499 29.4961 15.4304 28.3535 15.8991 28.3242C16.114 28.3145 16.114 28.3242 16.114 29.7109ZM25.9773 36.7227C26.5632 36.9863 26.8366 37.25 27.1101 37.8359C27.3347 38.3145 27.3445 38.3926 27.3445 40.9805V43.6465H26.612H25.8796V42.8262C25.8796 41.4688 25.7624 41.3125 24.5905 41.1562C23.487 41.0098 22.657 39.9941 22.657 38.7832C22.657 37.1621 24.4636 36.0391 25.9773 36.7227ZM12.0124 46.0879V46.8691H6.92453H1.83664L1.88547 46.6445C1.91476 46.5273 1.99289 46.1758 2.05148 45.8633L2.15891 45.3066H7.09055H12.0124V46.0879ZM47.9499 45.8633C48.0085 46.1758 48.0866 46.5273 48.1159 46.6543L48.1648 46.8691H43.0769H37.989V46.0879V45.3066H42.9109H47.8425L47.9499 45.8633Z" fill="#757575"/>
<path id="Vector_2" d="M24.1218 38.8613V39.7402H25.0007H25.8796V38.8613V37.9824H25.0007H24.1218V38.8613Z" fill="#757575"/>
</g>
</g>
<defs fill="#4c4747">
<clipPath id="clip0_101_745" fill="#4c4747">
<rect width="50" height="50" fill="#757575" transform="translate(0.000701904 0.529297)"/>
</clipPath>
</defs>
</svg>