<svg width="50" height="51" viewBox="0 0 50 51" fill="black" xmlns="http://www.w3.org/2000/svg">
<g id="image 4 (traced)" clip-path="url(#clip0_101_762)">
<g id="Black">
<path id="Vector" d="M7.81249 0.617031C6.4453 1.04672 5.39061 2.14047 5.03905 3.50766C4.81444 4.36703 4.80468 13.9764 5.02928 14.8358C5.34178 16.037 6.06444 16.9061 7.22655 17.4627L7.86132 17.7655L11.1035 17.7948C14.2578 17.8241 14.3555 17.8143 14.5508 17.619C14.7558 17.4139 14.8144 16.9452 14.6484 16.6424C14.4629 16.3006 14.0234 16.2518 11.1328 16.2518H8.33983L7.82225 15.9979C7.22655 15.6952 6.70897 15.0604 6.55272 14.4256C6.48436 14.162 6.4453 12.2479 6.4453 9.14242C6.4453 3.79086 6.45507 3.64437 7.03124 2.95102C7.19725 2.7557 7.57811 2.4725 7.89061 2.31625L8.44725 2.04281L23.6328 2.01352L38.8086 1.99398L39.0332 1.77914C39.3164 1.51547 39.3262 1.03695 39.0625 0.743984L38.8574 0.52914L23.457 0.538906C14.9902 0.538906 7.94921 0.577969 7.81249 0.617031Z" fill="#6B7385"/>
<path id="Vector_2" d="M41.0254 0.734375C40.7715 1.01758 40.7617 1.49609 41.0059 1.76953C41.1719 1.94531 41.3379 1.97461 42.5098 2.01367C43.6914 2.05273 43.877 2.08203 44.375 2.32617C44.668 2.47266 45.0488 2.75586 45.2149 2.95117C45.791 3.64453 45.8008 3.79102 45.8008 9.16211C45.8008 12.4336 45.7617 14.1816 45.6934 14.4453C45.5274 15.0312 45.0684 15.627 44.5508 15.9297L44.0918 16.2031L34.0527 16.252L24.0039 16.3008L23.7695 16.5742C23.4766 16.916 23.4668 17.2188 23.7402 17.5605L23.9453 17.8145L34.1602 17.7949L44.3848 17.7656L45.0195 17.4629C46.1816 16.9062 46.9043 16.0371 47.2168 14.8359C47.4316 13.9766 47.4316 4.36719 47.2168 3.50781C46.9141 2.33594 46.1426 1.4082 45.0391 0.861328C44.5117 0.597656 44.4043 0.578125 42.8613 0.548828C41.2695 0.509766 41.2305 0.519531 41.0254 0.734375Z" fill="#6B7385"/>
<path id="Vector_3" d="M13.0664 5.34362C12.7344 5.60729 12.6953 5.97838 12.6953 8.6737C12.6953 11.4276 12.7441 11.8671 13.0859 12.0526C13.3301 12.1893 15.5859 12.1796 16.0645 12.0428C16.582 11.8964 17.3242 11.1542 17.4707 10.6366C17.6855 9.85534 17.5684 9.16198 17.1191 8.55651C16.9043 8.27331 16.8945 8.20495 16.9922 7.89245C17.1777 7.32604 17.0703 6.54479 16.7383 6.07604C16.2695 5.41198 15.8789 5.26549 14.4531 5.2362C13.5449 5.21667 13.1934 5.24596 13.0664 5.34362ZM15.3711 6.93542C15.5566 7.1112 15.5762 7.37487 15.4102 7.54088C15.3418 7.60924 15.0586 7.65807 14.7754 7.65807H14.2578V7.21862V6.77917H14.7363C15.0488 6.77917 15.2734 6.83776 15.3711 6.93542ZM15.8301 9.50378C16.0742 9.80651 16.0645 10.0799 15.8008 10.3632C15.625 10.5585 15.498 10.5878 14.9219 10.5878H14.2578V9.8944V9.20104L14.9512 9.2401C15.5371 9.2694 15.6738 9.31823 15.8301 9.50378Z" fill="#6B7385"/>
<path id="Vector_4" d="M35.1562 5.41211C34.9707 5.59766 34.9609 5.73438 34.9609 8.61523C34.9609 11.1055 34.9902 11.6523 35.1074 11.8281C35.4102 12.2578 36.1914 12.1895 36.416 11.7012C36.4746 11.5645 36.5234 11.1836 36.5234 10.8516V10.2461L37.2852 10.9883C38.2324 11.9258 38.5449 12.1504 38.8379 12.1504C39.1895 12.1504 39.5508 11.7402 39.5508 11.3398C39.5508 11.0371 39.4141 10.8711 38.3105 9.76758L37.0605 8.53711L37.4512 8.17578C39.2676 6.51562 39.3555 6.41797 39.3555 6.07617C39.3555 5.4707 38.877 5.10938 38.3594 5.30469C38.2324 5.35352 37.793 5.70508 37.3828 6.08594C36.9727 6.4668 36.6211 6.7793 36.5918 6.7793C36.5723 6.7793 36.5234 6.51562 36.5039 6.19336C36.4551 5.4707 36.25 5.2168 35.7227 5.2168C35.4785 5.2168 35.2832 5.28516 35.1562 5.41211Z" fill="#6B7385"/>
<path id="Vector_5" d="M21.0938 5.59747C20.2441 5.86114 19.3066 6.69122 18.916 7.54083C18.7402 7.91192 18.7012 8.18536 18.7012 8.92755C18.7012 9.74786 18.7305 9.92364 18.9746 10.4119C19.668 11.8182 21.1426 12.5799 22.6953 12.3357C24.7266 12.0037 26.0254 9.9334 25.4297 7.95098C25.127 6.93536 24.3359 6.06622 23.3789 5.70489C22.8223 5.49981 21.6016 5.44122 21.0938 5.59747ZM22.8711 7.16973C22.9102 7.16973 23.1055 7.31622 23.3008 7.48223C24.1797 8.25372 24.2383 9.40606 23.457 10.2264C23.0664 10.6365 22.6758 10.8123 22.1191 10.8123C20.7324 10.8123 19.7949 9.35723 20.4004 8.15606C20.8301 7.32598 21.6406 6.90606 22.4609 7.09161C22.6465 7.13067 22.832 7.16973 22.8711 7.16973Z" fill="#6B7385"/>
<path id="Vector_6" d="M28.7402 5.70508C28.0078 5.99805 27.3145 6.66211 26.9336 7.44336C26.6406 8.0293 26.6113 8.17578 26.6113 8.92773C26.6211 10.0215 26.9434 10.7637 27.7051 11.4668C28.3887 12.0918 29.1113 12.3652 30.0781 12.3652C32.1191 12.3652 33.584 10.8027 33.4766 8.75195C33.418 7.46289 32.7539 6.41797 31.6211 5.83203C30.9082 5.4707 29.502 5.40234 28.7402 5.70508ZM30.9766 7.29688C31.8262 7.76563 32.168 8.86914 31.7383 9.75781C31.1816 10.9102 29.6191 11.1836 28.7402 10.2754C27.9297 9.43555 27.9395 8.39063 28.7598 7.58984C29.4141 6.96484 30.1855 6.86719 30.9766 7.29688Z" fill="#6B7385"/>
<path id="Vector_7" d="M18.6328 13.0294C17.6367 13.1954 16.7969 13.8497 16.3672 14.7774C16.1719 15.1973 16.1621 15.4024 16.1328 18.1759L16.1035 21.1251L15.7031 20.9786C14.7754 20.6563 13.5449 20.8614 12.7246 21.4864L12.4023 21.7305L12.041 21.4376C11.0059 20.6075 9.35547 20.627 8.23243 21.4864L7.91016 21.7305L7.54883 21.4376C7.03125 21.0274 6.43555 20.8419 5.61524 20.8419C4.42383 20.8419 3.39844 21.4962 2.89063 22.5899C2.69532 23.0196 2.68555 23.2247 2.65625 26.5645C2.62696 29.836 2.63672 30.0997 2.80274 30.3048C3.05664 30.6075 3.60352 30.6759 3.90625 30.4317L4.15039 30.2364L4.19922 26.7794C4.24805 23.3614 4.24805 23.3321 4.47266 23.0098C5.07813 22.17 6.24024 22.1798 6.875 23.0196C7.07032 23.2833 7.08008 23.4493 7.12891 25.8223C7.1875 28.6348 7.17774 28.6153 7.83204 28.7227C8.125 28.7618 8.23243 28.7325 8.4375 28.5274L8.69141 28.2735V25.9005C8.69141 23.6251 8.70118 23.5079 8.91602 23.1466C9.45313 22.1895 10.6934 22.1212 11.3672 23.0196C11.5625 23.2833 11.5723 23.4493 11.6211 25.8223C11.6797 28.6348 11.6699 28.6153 12.3242 28.7227C12.6172 28.7618 12.7246 28.7325 12.9297 28.5274L13.1836 28.2735V25.9005C13.1836 23.6251 13.1934 23.5079 13.4082 23.1466C13.9453 22.1895 15.1856 22.1212 15.8594 23.0196C16.0547 23.2833 16.0645 23.4493 16.1133 25.8223C16.1719 28.6348 16.1621 28.6153 16.8164 28.7227C17.1094 28.7618 17.2168 28.7325 17.4219 28.5274L17.6758 28.2735V22.004C17.6758 16.4278 17.6953 15.7052 17.832 15.4122C18.0371 14.9923 18.3691 14.7188 18.8672 14.5821C19.209 14.4942 19.3164 14.5137 19.707 14.7091C19.9609 14.836 20.2637 15.0802 20.3809 15.2657L20.6055 15.5977V23.6837C20.6055 29.4845 20.6348 31.838 20.7129 32.0137C20.8594 32.3165 21.2988 32.5118 21.6211 32.4044C21.7481 32.3555 22.793 31.4473 23.9356 30.3829C25.0781 29.3184 26.1133 28.4005 26.25 28.3516C26.8164 28.1368 27.5391 28.6446 27.5391 29.2501C27.5391 29.4356 27.002 30.5977 26.0742 32.3946C24.5313 35.3927 24.4336 35.7052 24.8047 36.0762C25.0488 36.3204 25.5859 36.3302 25.8594 36.0958C25.9668 36.0079 26.7383 34.5821 27.5781 32.9317C29.0137 30.1095 29.1016 29.9141 29.1016 29.3868C29.1016 28.6055 28.9356 28.127 28.4863 27.6192C27.9102 26.9552 27.4414 26.7501 26.5625 26.7598C25.5664 26.7598 25.3223 26.9063 23.6231 28.4884L22.2168 29.8067L22.168 22.463L22.1191 15.129L21.8555 14.6309C21.2402 13.4688 19.9316 12.8145 18.6328 13.0294Z" fill="#6B7385"/>
<path id="Vector_8" d="M35.3223 20.3049C34.209 21.1447 34.0625 21.4279 34.4824 21.9552C34.834 22.3947 35.2637 22.3166 36.2012 21.6232C37.3633 20.7736 37.5488 20.3927 37.0605 19.9142C36.6504 19.4943 36.289 19.5822 35.3223 20.3049Z" fill="#6B7385"/>
<path id="Vector_9" d="M43.0176 19.9138C42.5293 20.3923 42.7246 20.8024 43.8281 21.5934C44.8242 22.3161 45.2441 22.3942 45.5957 21.9548C46.0156 21.4177 45.8398 21.0856 44.6582 20.2263C43.7598 19.5915 43.4082 19.5134 43.0176 19.9138Z" fill="#6B7385"/>
<path id="Vector_10" d="M39.4531 21.0565C39.2773 21.242 39.2578 21.3983 39.2578 22.453C39.2578 23.7616 39.3457 24.0057 39.834 24.1131C40.1562 24.1815 40.6641 23.9666 40.7617 23.7225C40.8691 23.4393 40.8301 21.4276 40.7129 21.203C40.5566 20.91 40.4395 20.8416 40.0195 20.8416C39.7656 20.8416 39.5898 20.91 39.4531 21.0565Z" fill="#6B7385"/>
<path id="Vector_11" d="M2.88086 32.4138L2.63671 32.6481V37.4724C2.63671 42.9899 2.59765 42.6774 3.51562 44.279L4.10156 45.3044V47.6286C4.10156 48.9567 4.14062 50.0309 4.19921 50.1384C4.32617 50.3825 4.83398 50.5388 5.11718 50.4313C5.64453 50.236 5.66406 50.1091 5.66406 47.3649V44.8356L4.96093 43.6052L4.24804 42.3845L4.21875 37.5016C4.18945 32.6579 4.18945 32.6188 3.98437 32.3942C3.6914 32.0817 3.19336 32.0915 2.88086 32.4138Z" fill="#6B7385"/>
<path id="Vector_12" d="M23.3496 37.7949C23.2422 37.9316 22.8809 38.5859 22.5488 39.2304C22.2168 39.8847 21.875 40.5097 21.7871 40.6171C21.6992 40.7343 20.5762 41.7988 19.2871 42.9999C17.998 44.2011 16.8848 45.2851 16.8164 45.412C16.7188 45.5976 16.6992 46.1933 16.7188 47.8827C16.748 49.9238 16.7676 50.1386 16.9336 50.3242C17.1875 50.5976 17.793 50.6074 18.0664 50.3339C18.252 50.1484 18.2617 50.0019 18.2715 48.1074L18.2813 46.0859L20.0781 44.4257C23.1641 41.5839 23.0078 41.7597 23.9063 40.0702C24.3945 39.1425 24.707 38.4394 24.707 38.2538C24.707 37.5898 23.7598 37.2675 23.3496 37.7949Z" fill="#6B7385"/>
</g>
</g>
<defs>
<clipPath id="clip0_101_762">
<rect width="50" height="50" fill="black" transform="translate(0 0.529297)"/>
</clipPath>
</defs>
</svg>
