<svg width="25" height="24" viewBox="0 0 25 24" fill="none" xmlns="http://www.w3.org/2000/svg">
<g id="u:apple">
<path id="Vector" d="M15.2755 5.19C15.6535 4.75428 15.9418 4.24817 16.1237 3.70074C16.3056 3.1533 16.3775 2.57533 16.3355 2C15.1748 2.09369 14.0975 2.63956 13.3355 3.52C12.9706 3.94198 12.694 4.43288 12.5223 4.96364C12.3505 5.49441 12.287 6.05424 12.3355 6.61C12.9016 6.61472 13.4612 6.4891 13.9711 6.24286C14.4809 5.99662 14.9272 5.63637 15.2755 5.19ZM17.7955 12.63C17.8022 11.8637 18.004 11.1118 18.3819 10.4452C18.7598 9.77859 19.3014 9.21926 19.9555 8.82C19.5427 8.22524 18.997 7.73483 18.3617 7.38767C17.7264 7.04052 17.0189 6.84615 16.2955 6.82C14.7355 6.66 13.2955 7.73 12.4655 7.73C11.6355 7.73 10.4655 6.84 9.16545 6.86C8.31558 6.888 7.48747 7.13578 6.7619 7.57919C6.03633 8.02259 5.43806 8.64648 5.02545 9.39C3.26545 12.45 4.57545 17 6.33545 19.47C7.13545 20.68 8.13545 22.05 9.45545 22C10.7755 21.95 11.2055 21.18 12.7355 21.18C14.2655 21.18 14.7355 22 16.0355 21.97C17.3355 21.94 18.2555 20.73 19.0955 19.52C19.6905 18.6415 20.1553 17.6816 20.4755 16.67C19.6829 16.332 19.0068 15.7693 18.5305 15.0513C18.0542 14.3333 17.7987 13.4916 17.7955 12.63Z" fill="white"/>
</g>
</svg>
