<svg width="25" height="24" viewBox="0 0 25 24" fill="none" xmlns="http://www.w3.org/2000/svg">
<g id="u:google-play">
<path id="Vector" d="M21.2543 10.6531C20.9399 10.4832 18.2436 8.91875 17.2319 8.32989L17.2289 8.32789L4.97405 1.25275C4.76527 1.1253 4.53117 1.04501 4.28811 1.01749C4.04506 0.989977 3.79893 1.0159 3.56694 1.09345C3.54076 1.10285 3.51616 1.11231 3.49071 1.12396C3.43162 1.14322 3.37386 1.16634 3.3178 1.19318C3.08349 1.33323 2.89126 1.53385 2.76134 1.77393C2.63141 2.01401 2.56861 2.28468 2.57952 2.55744V21.5428C2.57209 21.7969 2.63227 22.0484 2.75392 22.2717C2.87557 22.4949 3.05433 22.6818 3.2719 22.8133C3.32209 22.8378 3.37379 22.8591 3.42669 22.877C3.45562 22.8904 3.4832 22.902 3.51305 22.9125C3.65626 22.9645 3.80709 22.9923 3.9594 22.9949C4.2519 22.9918 4.53845 22.912 4.79046 22.7635C5.17913 22.5379 17.2289 15.5809 17.2289 15.5809L21.2495 13.2596C21.498 13.1351 21.7078 12.945 21.8562 12.7099C22.0046 12.4747 22.0858 12.2035 22.0913 11.9256C22.079 11.6578 21.9948 11.3983 21.8475 11.1744C21.7003 10.9505 21.4953 10.7704 21.2543 10.6531ZM4.57952 19.8391V4.10199L12.5196 11.9611L4.57952 19.8391ZM9.59752 17.6774L13.941 13.3679L15.0906 14.5057C13.8259 15.236 11.6893 16.4697 9.59752 17.6775V17.6774ZM13.9393 10.5524L9.54145 6.19946L15.0951 9.40576L13.9393 10.5524ZM16.8861 13.4691L15.3607 11.9594L16.8885 10.4435C17.6087 10.8618 18.7313 11.5129 19.5044 11.9578L16.8861 13.4691Z" fill="white"/>
</g>
</svg>
